# MagicaVoxel @ Ephtracy

# group
o 

# material
mtllib chain.mtl
usemtl palette

# normals
vn -1 0 0
vn 1 0 0
vn 0 0 1
vn 0 0 -1
vn 0 -1 0
vn 0 1 0

# texcoords
vt 0.0214844 0.5
vt 0.919922 0.5

# verts
v 0 -0.6 -0.2
v 0 -0.6 -0.3
v 0 -0.6 -0.7
v 0 -0.6 -0.8
v 0 -0.4 -0.2
v 0 -0.4 -0.3
v 0 -0.4 -0.7
v 0 -0.4 -0.8
v 0.1 -0.7 -0.4
v 0.1 -0.7 -0.6
v 0.1 -0.3 -0.4
v 0.1 -0.3 -0.6
v 0.2 -0.8 -0.4
v 0.2 -0.8 -0.6
v 0.2 -0.7 -0.4
v 0.2 -0.7 -0.6
v 0.2 -0.6 -0.3
v 0.2 -0.6 -0.4
v 0.2 -0.6 -0.6
v 0.2 -0.6 -0.7
v 0.2 -0.4 -0.3
v 0.2 -0.4 -0.4
v 0.2 -0.4 -0.6
v 0.2 -0.4 -0.7
v 0.2 -0.3 -0.4
v 0.2 -0.3 -0.6
v 0.2 -0.2 -0.4
v 0.2 -0.2 -0.6
v 0.3 -0.6 -0.4
v 0.3 -0.6 -0.6
v 0.3 -0.4 -0.4
v 0.3 -0.4 -0.6
v 0.6 -0.6 -0.3
v 0.6 -0.6 -0.7
v 0.6 -0.4 -0.3
v 0.6 -0.4 -0.7
v 0.7 -0.7 -0.4
v 0.7 -0.7 -0.6
v 0.7 -0.6 -0.2
v 0.7 -0.6 -0.3
v 0.7 -0.6 -0.4
v 0.7 -0.6 -0.6
v 0.7 -0.6 -0.7
v 0.7 -0.6 -0.8
v 0.7 -0.4 -0.2
v 0.7 -0.4 -0.3
v 0.7 -0.4 -0.4
v 0.7 -0.4 -0.6
v 0.7 -0.4 -0.7
v 0.7 -0.4 -0.8
v 0.7 -0.3 -0.4
v 0.7 -0.3 -0.6
v 0.8 -0.6 -0.4
v 0.8 -0.6 -0.6
v 0.8 -0.4 -0.4
v 0.8 -0.4 -0.6
v 0.2 -0.6 -0.4
v 0.2 -0.6 -0.6
v 0.2 -0.4 -0.4
v 0.2 -0.4 -0.6
v 0.2 -0.3 -0.4
v 0.2 -0.3 -0.6
v 0.3 -0.7 -0.4
v 0.3 -0.7 -0.6
v 0.3 -0.6 -0.2
v 0.3 -0.6 -0.3
v 0.3 -0.6 -0.4
v 0.3 -0.6 -0.6
v 0.3 -0.6 -0.7
v 0.3 -0.6 -0.8
v 0.3 -0.4 -0.2
v 0.3 -0.4 -0.3
v 0.3 -0.4 -0.7
v 0.3 -0.4 -0.8
v 0.4 -0.6 -0.3
v 0.4 -0.6 -0.7
v 0.4 -0.4 -0.3
v 0.4 -0.4 -0.7
v 0.7 -0.6 -0.4
v 0.7 -0.6 -0.6
v 0.7 -0.4 -0.4
v 0.7 -0.4 -0.6
v 0.8 -0.8 -0.4
v 0.8 -0.8 -0.6
v 0.8 -0.7 -0.4
v 0.8 -0.7 -0.6
v 0.8 -0.6 -0.3
v 0.8 -0.6 -0.4
v 0.8 -0.6 -0.6
v 0.8 -0.6 -0.7
v 0.8 -0.4 -0.3
v 0.8 -0.4 -0.4
v 0.8 -0.4 -0.6
v 0.8 -0.4 -0.7
v 0.8 -0.3 -0.4
v 0.8 -0.3 -0.6
v 0.8 -0.2 -0.4
v 0.8 -0.2 -0.6
v 0.9 -0.7 -0.4
v 0.9 -0.7 -0.6
v 0.9 -0.3 -0.4
v 0.9 -0.3 -0.6
v 1 -0.6 -0.2
v 1 -0.6 -0.3
v 1 -0.6 -0.7
v 1 -0.6 -0.8
v 1 -0.4 -0.2
v 1 -0.4 -0.3
v 1 -0.4 -0.7
v 1 -0.4 -0.8
v 0 -0.6 -0.2
v 0 -0.4 -0.2
v 0.3 -0.6 -0.2
v 0.3 -0.4 -0.2
v 0.7 -0.6 -0.2
v 0.7 -0.4 -0.2
v 1 -0.6 -0.2
v 1 -0.4 -0.2
v 0.3 -0.6 -0.3
v 0.3 -0.4 -0.3
v 0.4 -0.6 -0.3
v 0.4 -0.4 -0.3
v 0.6 -0.6 -0.3
v 0.6 -0.4 -0.3
v 0.7 -0.6 -0.3
v 0.7 -0.4 -0.3
v 0.1 -0.7 -0.4
v 0.1 -0.3 -0.4
v 0.2 -0.8 -0.4
v 0.2 -0.7 -0.4
v 0.2 -0.6 -0.4
v 0.2 -0.4 -0.4
v 0.2 -0.3 -0.4
v 0.2 -0.2 -0.4
v 0.3 -0.7 -0.4
v 0.3 -0.6 -0.4
v 0.7 -0.7 -0.4
v 0.7 -0.6 -0.4
v 0.7 -0.4 -0.4
v 0.7 -0.3 -0.4
v 0.8 -0.8 -0.4
v 0.8 -0.7 -0.4
v 0.8 -0.6 -0.4
v 0.8 -0.4 -0.4
v 0.8 -0.3 -0.4
v 0.8 -0.2 -0.4
v 0.9 -0.7 -0.4
v 0.9 -0.3 -0.4
v 0.2 -0.6 -0.6
v 0.2 -0.4 -0.6
v 0.3 -0.6 -0.6
v 0.3 -0.4 -0.6
v 0.7 -0.6 -0.6
v 0.7 -0.4 -0.6
v 0.8 -0.6 -0.6
v 0.8 -0.4 -0.6
v 0 -0.6 -0.7
v 0 -0.4 -0.7
v 0.2 -0.6 -0.7
v 0.2 -0.4 -0.7
v 0.8 -0.6 -0.7
v 0.8 -0.4 -0.7
v 1 -0.6 -0.7
v 1 -0.4 -0.7
v 0 -0.6 -0.3
v 0 -0.4 -0.3
v 0.2 -0.6 -0.3
v 0.2 -0.4 -0.3
v 0.8 -0.6 -0.3
v 0.8 -0.4 -0.3
v 1 -0.6 -0.3
v 1 -0.4 -0.3
v 0.2 -0.6 -0.4
v 0.2 -0.4 -0.4
v 0.3 -0.6 -0.4
v 0.3 -0.4 -0.4
v 0.7 -0.6 -0.4
v 0.7 -0.4 -0.4
v 0.8 -0.6 -0.4
v 0.8 -0.4 -0.4
v 0.1 -0.7 -0.6
v 0.1 -0.3 -0.6
v 0.2 -0.8 -0.6
v 0.2 -0.7 -0.6
v 0.2 -0.6 -0.6
v 0.2 -0.4 -0.6
v 0.2 -0.3 -0.6
v 0.2 -0.2 -0.6
v 0.3 -0.7 -0.6
v 0.3 -0.6 -0.6
v 0.7 -0.7 -0.6
v 0.7 -0.6 -0.6
v 0.7 -0.4 -0.6
v 0.7 -0.3 -0.6
v 0.8 -0.8 -0.6
v 0.8 -0.7 -0.6
v 0.8 -0.6 -0.6
v 0.8 -0.4 -0.6
v 0.8 -0.3 -0.6
v 0.8 -0.2 -0.6
v 0.9 -0.7 -0.6
v 0.9 -0.3 -0.6
v 0.3 -0.6 -0.7
v 0.3 -0.4 -0.7
v 0.4 -0.6 -0.7
v 0.4 -0.4 -0.7
v 0.6 -0.6 -0.7
v 0.6 -0.4 -0.7
v 0.7 -0.6 -0.7
v 0.7 -0.4 -0.7
v 0 -0.6 -0.8
v 0 -0.4 -0.8
v 0.3 -0.6 -0.8
v 0.3 -0.4 -0.8
v 0.7 -0.6 -0.8
v 0.7 -0.4 -0.8
v 1 -0.6 -0.8
v 1 -0.4 -0.8
v 0.2 -0.8 -0.4
v 0.8 -0.8 -0.4
v 0.2 -0.8 -0.6
v 0.8 -0.8 -0.6
v 0.1 -0.7 -0.4
v 0.2 -0.7 -0.4
v 0.8 -0.7 -0.4
v 0.9 -0.7 -0.4
v 0.1 -0.7 -0.6
v 0.2 -0.7 -0.6
v 0.8 -0.7 -0.6
v 0.9 -0.7 -0.6
v 0 -0.6 -0.2
v 0.3 -0.6 -0.2
v 0.7 -0.6 -0.2
v 1 -0.6 -0.2
v 0 -0.6 -0.3
v 0.2 -0.6 -0.3
v 0.3 -0.6 -0.3
v 0.4 -0.6 -0.3
v 0.6 -0.6 -0.3
v 0.7 -0.6 -0.3
v 0.8 -0.6 -0.3
v 1 -0.6 -0.3
v 0.2 -0.6 -0.4
v 0.3 -0.6 -0.4
v 0.7 -0.6 -0.4
v 0.8 -0.6 -0.4
v 0.2 -0.6 -0.6
v 0.3 -0.6 -0.6
v 0.7 -0.6 -0.6
v 0.8 -0.6 -0.6
v 0 -0.6 -0.7
v 0.2 -0.6 -0.7
v 0.3 -0.6 -0.7
v 0.4 -0.6 -0.7
v 0.6 -0.6 -0.7
v 0.7 -0.6 -0.7
v 0.8 -0.6 -0.7
v 1 -0.6 -0.7
v 0 -0.6 -0.8
v 0.3 -0.6 -0.8
v 0.7 -0.6 -0.8
v 1 -0.6 -0.8
v 0.7 -0.4 -0.4
v 0.8 -0.4 -0.4
v 0.7 -0.4 -0.6
v 0.8 -0.4 -0.6
v 0.2 -0.3 -0.4
v 0.7 -0.3 -0.4
v 0.2 -0.3 -0.6
v 0.7 -0.3 -0.6
v 0.3 -0.7 -0.4
v 0.7 -0.7 -0.4
v 0.3 -0.7 -0.6
v 0.7 -0.7 -0.6
v 0.2 -0.6 -0.4
v 0.3 -0.6 -0.4
v 0.7 -0.6 -0.4
v 0.8 -0.6 -0.4
v 0.2 -0.6 -0.6
v 0.3 -0.6 -0.6
v 0.7 -0.6 -0.6
v 0.8 -0.6 -0.6
v 0 -0.4 -0.2
v 0.3 -0.4 -0.2
v 0.7 -0.4 -0.2
v 1 -0.4 -0.2
v 0 -0.4 -0.3
v 0.2 -0.4 -0.3
v 0.3 -0.4 -0.3
v 0.4 -0.4 -0.3
v 0.6 -0.4 -0.3
v 0.7 -0.4 -0.3
v 0.8 -0.4 -0.3
v 1 -0.4 -0.3
v 0.2 -0.4 -0.4
v 0.3 -0.4 -0.4
v 0.7 -0.4 -0.4
v 0.8 -0.4 -0.4
v 0.2 -0.4 -0.6
v 0.3 -0.4 -0.6
v 0.7 -0.4 -0.6
v 0.8 -0.4 -0.6
v 0 -0.4 -0.7
v 0.2 -0.4 -0.7
v 0.3 -0.4 -0.7
v 0.4 -0.4 -0.7
v 0.6 -0.4 -0.7
v 0.7 -0.4 -0.7
v 0.8 -0.4 -0.7
v 1 -0.4 -0.7
v 0 -0.4 -0.8
v 0.3 -0.4 -0.8
v 0.7 -0.4 -0.8
v 1 -0.4 -0.8
v 0.1 -0.3 -0.4
v 0.2 -0.3 -0.4
v 0.8 -0.3 -0.4
v 0.9 -0.3 -0.4
v 0.1 -0.3 -0.6
v 0.2 -0.3 -0.6
v 0.8 -0.3 -0.6
v 0.9 -0.3 -0.6
v 0.2 -0.2 -0.4
v 0.8 -0.2 -0.4
v 0.2 -0.2 -0.6
v 0.8 -0.2 -0.6

# faces
f 5/1/1 2/1/1 1/1/1
f 6/1/1 2/1/1 5/1/1
f 7/1/1 4/1/1 3/1/1
f 8/1/1 4/1/1 7/1/1
f 11/2/1 10/2/1 9/2/1
f 12/2/1 10/2/1 11/2/1
f 15/2/1 14/2/1 13/2/1
f 16/2/1 14/2/1 15/2/1
f 21/1/1 18/1/1 17/1/1
f 22/1/1 18/1/1 21/1/1
f 23/1/1 20/1/1 19/1/1
f 24/1/1 20/1/1 23/1/1
f 27/2/1 26/2/1 25/2/1
f 28/2/1 26/2/1 27/2/1
f 31/1/1 30/1/1 29/1/1
f 32/1/1 30/1/1 31/1/1
f 35/1/1 34/1/1 33/1/1
f 36/1/1 34/1/1 35/1/1
f 41/2/1 38/2/1 37/2/1
f 42/2/1 38/2/1 41/2/1
f 45/1/1 40/1/1 39/1/1
f 46/1/1 40/1/1 45/1/1
f 49/1/1 44/1/1 43/1/1
f 50/1/1 44/1/1 49/1/1
f 51/2/1 48/2/1 47/2/1
f 52/2/1 48/2/1 51/2/1
f 55/2/1 54/2/1 53/2/1
f 56/2/1 54/2/1 55/2/1
f 57/2/2 58/2/2 59/2/2
f 59/2/2 58/2/2 60/2/2
f 59/2/2 60/2/2 61/2/2
f 61/2/2 60/2/2 62/2/2
f 63/2/2 64/2/2 67/2/2
f 67/2/2 64/2/2 68/2/2
f 65/1/2 66/1/2 71/1/2
f 71/1/2 66/1/2 72/1/2
f 69/1/2 70/1/2 73/1/2
f 73/1/2 70/1/2 74/1/2
f 75/1/2 76/1/2 77/1/2
f 77/1/2 76/1/2 78/1/2
f 79/1/2 80/1/2 81/1/2
f 81/1/2 80/1/2 82/1/2
f 83/2/2 84/2/2 85/2/2
f 85/2/2 84/2/2 86/2/2
f 87/1/2 88/1/2 91/1/2
f 91/1/2 88/1/2 92/1/2
f 89/1/2 90/1/2 93/1/2
f 93/1/2 90/1/2 94/1/2
f 95/2/2 96/2/2 97/2/2
f 97/2/2 96/2/2 98/2/2
f 99/2/2 100/2/2 101/2/2
f 101/2/2 100/2/2 102/2/2
f 103/1/2 104/1/2 107/1/2
f 107/1/2 104/1/2 108/1/2
f 105/1/2 106/1/2 109/1/2
f 109/1/2 106/1/2 110/1/2
f 113/1/3 112/1/3 111/1/3
f 114/1/3 112/1/3 113/1/3
f 117/1/3 116/1/3 115/1/3
f 118/1/3 116/1/3 117/1/3
f 121/1/3 120/1/3 119/1/3
f 122/1/3 120/1/3 121/1/3
f 125/1/3 124/1/3 123/1/3
f 126/1/3 124/1/3 125/1/3
f 130/2/3 128/2/3 127/2/3
f 131/2/3 128/2/3 130/2/3
f 132/2/3 128/2/3 131/2/3
f 133/2/3 128/2/3 132/2/3
f 135/2/3 130/2/3 129/2/3
f 135/2/3 131/2/3 130/2/3
f 136/2/3 131/2/3 135/2/3
f 137/2/3 135/2/3 129/2/3
f 140/2/3 134/2/3 133/2/3
f 141/2/3 137/2/3 129/2/3
f 141/2/3 138/2/3 137/2/3
f 142/2/3 138/2/3 141/2/3
f 143/2/3 138/2/3 142/2/3
f 144/2/3 140/2/3 139/2/3
f 145/2/3 134/2/3 140/2/3
f 145/2/3 140/2/3 144/2/3
f 146/2/3 134/2/3 145/2/3
f 147/2/3 143/2/3 142/2/3
f 147/2/3 144/2/3 143/2/3
f 147/2/3 145/2/3 144/2/3
f 148/2/3 145/2/3 147/2/3
f 151/1/3 150/1/3 149/1/3
f 152/1/3 150/1/3 151/1/3
f 155/1/3 154/1/3 153/1/3
f 156/1/3 154/1/3 155/1/3
f 159/1/3 158/1/3 157/1/3
f 160/1/3 158/1/3 159/1/3
f 163/1/3 162/1/3 161/1/3
f 164/1/3 162/1/3 163/1/3
f 165/1/4 166/1/4 167/1/4
f 167/1/4 166/1/4 168/1/4
f 169/1/4 170/1/4 171/1/4
f 171/1/4 170/1/4 172/1/4
f 173/1/4 174/1/4 175/1/4
f 175/1/4 174/1/4 176/1/4
f 177/1/4 178/1/4 179/1/4
f 179/1/4 178/1/4 180/1/4
f 181/2/4 182/2/4 184/2/4
f 184/2/4 182/2/4 185/2/4
f 185/2/4 182/2/4 186/2/4
f 186/2/4 182/2/4 187/2/4
f 183/2/4 184/2/4 189/2/4
f 184/2/4 185/2/4 189/2/4
f 189/2/4 185/2/4 190/2/4
f 183/2/4 189/2/4 191/2/4
f 187/2/4 188/2/4 194/2/4
f 183/2/4 191/2/4 195/2/4
f 191/2/4 192/2/4 195/2/4
f 195/2/4 192/2/4 196/2/4
f 196/2/4 192/2/4 197/2/4
f 193/2/4 194/2/4 198/2/4
f 194/2/4 188/2/4 199/2/4
f 198/2/4 194/2/4 199/2/4
f 199/2/4 188/2/4 200/2/4
f 196/2/4 197/2/4 201/2/4
f 197/2/4 198/2/4 201/2/4
f 198/2/4 199/2/4 201/2/4
f 201/2/4 199/2/4 202/2/4
f 203/1/4 204/1/4 205/1/4
f 205/1/4 204/1/4 206/1/4
f 207/1/4 208/1/4 209/1/4
f 209/1/4 208/1/4 210/1/4
f 211/1/4 212/1/4 213/1/4
f 213/1/4 212/1/4 214/1/4
f 215/1/4 216/1/4 217/1/4
f 217/1/4 216/1/4 218/1/4
f 221/2/5 220/2/5 219/2/5
f 222/2/5 220/2/5 221/2/5
f 227/2/5 224/2/5 223/2/5
f 228/2/5 224/2/5 227/2/5
f 229/2/5 226/2/5 225/2/5
f 230/2/5 226/2/5 229/2/5
f 235/1/5 232/1/5 231/1/5
f 236/1/5 232/1/5 235/1/5
f 237/1/5 232/1/5 236/1/5
f 240/1/5 234/1/5 233/1/5
f 241/1/5 234/1/5 240/1/5
f 242/1/5 234/1/5 241/1/5
f 243/1/5 238/1/5 237/1/5
f 243/1/5 237/1/5 236/1/5
f 244/1/5 238/1/5 243/1/5
f 245/1/5 241/1/5 240/1/5
f 245/1/5 240/1/5 239/1/5
f 246/1/5 241/1/5 245/1/5
f 248/1/5 238/1/5 244/1/5
f 249/1/5 245/1/5 239/1/5
f 252/1/5 248/1/5 247/1/5
f 253/1/5 238/1/5 248/1/5
f 253/1/5 248/1/5 252/1/5
f 254/1/5 238/1/5 253/1/5
f 255/1/5 250/1/5 249/1/5
f 255/1/5 249/1/5 239/1/5
f 256/1/5 250/1/5 255/1/5
f 257/1/5 250/1/5 256/1/5
f 259/1/5 252/1/5 251/1/5
f 259/1/5 253/1/5 252/1/5
f 260/1/5 253/1/5 259/1/5
f 261/1/5 258/1/5 257/1/5
f 261/1/5 257/1/5 256/1/5
f 262/1/5 258/1/5 261/1/5
f 265/2/5 264/2/5 263/2/5
f 266/2/5 264/2/5 265/2/5
f 269/2/5 268/2/5 267/2/5
f 270/2/5 268/2/5 269/2/5
f 271/2/6 272/2/6 273/2/6
f 273/2/6 272/2/6 274/2/6
f 275/2/6 276/2/6 279/2/6
f 279/2/6 276/2/6 280/2/6
f 277/2/6 278/2/6 281/2/6
f 281/2/6 278/2/6 282/2/6
f 283/1/6 284/1/6 287/1/6
f 287/1/6 284/1/6 288/1/6
f 288/1/6 284/1/6 289/1/6
f 285/1/6 286/1/6 292/1/6
f 292/1/6 286/1/6 293/1/6
f 293/1/6 286/1/6 294/1/6
f 289/1/6 290/1/6 295/1/6
f 288/1/6 289/1/6 295/1/6
f 295/1/6 290/1/6 296/1/6
f 292/1/6 293/1/6 297/1/6
f 291/1/6 292/1/6 297/1/6
f 297/1/6 293/1/6 298/1/6
f 296/1/6 290/1/6 300/1/6
f 291/1/6 297/1/6 301/1/6
f 299/1/6 300/1/6 304/1/6
f 300/1/6 290/1/6 305/1/6
f 304/1/6 300/1/6 305/1/6
f 305/1/6 290/1/6 306/1/6
f 301/1/6 302/1/6 307/1/6
f 291/1/6 301/1/6 307/1/6
f 307/1/6 302/1/6 308/1/6
f 308/1/6 302/1/6 309/1/6
f 303/1/6 304/1/6 311/1/6
f 304/1/6 305/1/6 311/1/6
f 311/1/6 305/1/6 312/1/6
f 309/1/6 310/1/6 313/1/6
f 308/1/6 309/1/6 313/1/6
f 313/1/6 310/1/6 314/1/6
f 315/2/6 316/2/6 319/2/6
f 319/2/6 316/2/6 320/2/6
f 317/2/6 318/2/6 321/2/6
f 321/2/6 318/2/6 322/2/6
f 323/2/6 324/2/6 325/2/6
f 325/2/6 324/2/6 326/2/6
