# MagicaVoxel @ Ephtracy

# group
o 

# material
mtllib cube10_test.mtl
usemtl palette

# normals
vn -1 0 0
vn 1 0 0
vn 0 0 1
vn 0 0 -1
vn 0 -1 0
vn 0 1 0

# texcoords
vt 0.119141 0.5
vt 0.435547 0.5
vt 0.955078 0.5
vt 0.958984 0.5

# verts
v 0 -1 0
v 0 -1 -0.1
v 0 -1 -1
v 0 -0.9 -0.1
v 0 -0.9 -0.9
v 0 -0.8 -0.2
v 0 -0.8 -0.8
v 0 -0.7 -0.2
v 0 -0.7 -0.7
v 0 -0.2 -0.7
v 0 -0.2 -0.8
v 0 -0.1 -0.1
v 0 -0.1 -0.9
v 0 0 0
v 0 0 -0.1
v 0 0 -1
v 1 -1 0
v 1 -1 -0.1
v 1 -1 -1
v 1 -0.9 -0.1
v 1 -0.9 -0.9
v 1 -0.8 -0.2
v 1 -0.8 -0.3
v 1 -0.8 -0.7
v 1 -0.8 -0.8
v 1 -0.7 -0.5
v 1 -0.7 -0.7
v 1 -0.7 -0.8
v 1 -0.6 -0.4
v 1 -0.6 -0.5
v 1 -0.6 -0.7
v 1 -0.5 -0.5
v 1 -0.5 -0.8
v 1 -0.4 -0.4
v 1 -0.4 -0.7
v 1 -0.3 -0.3
v 1 -0.3 -0.7
v 1 -0.2 -0.2
v 1 -0.2 -0.8
v 1 -0.1 -0.1
v 1 -0.1 -0.9
v 1 0 0
v 1 0 -0.1
v 1 0 -1
v 0 -1 0
v 0 0 0
v 0.1 -0.9 0
v 0.1 -0.1 0
v 0.3 -0.8 0
v 0.3 -0.3 0
v 0.4 -0.8 0
v 0.4 -0.6 0
v 0.4 -0.5 0
v 0.4 -0.4 0
v 0.7 -0.6 0
v 0.7 -0.5 0
v 0.7 -0.4 0
v 0.7 -0.3 0
v 0.9 -0.9 0
v 0.9 -0.1 0
v 1 -1 0
v 1 0 0
v 0 -1 -1
v 0 0 -1
v 0.1 -1 -1
v 0.1 0 -1
v 0.9 -1 -1
v 0.9 0 -1
v 1 -1 -1
v 1 0 -1
v 0 -1 0
v 1 -1 0
v 0 -1 -0.1
v 0.1 -1 -0.1
v 0.9 -1 -0.1
v 1 -1 -0.1
v 0.2 -1 -0.2
v 0.6 -1 -0.2
v 0.3 -1 -0.3
v 0.6 -1 -0.3
v 0.7 -1 -0.3
v 0.6 -1 -0.4
v 0.7 -1 -0.4
v 0.8 -1 -0.4
v 0.6 -1 -0.7
v 0.7 -1 -0.7
v 0.8 -1 -0.7
v 0.3 -1 -0.8
v 0.6 -1 -0.8
v 0.7 -1 -0.8
v 0.2 -1 -0.9
v 0.6 -1 -0.9
v 0 -1 -1
v 0.1 -1 -1
v 0.9 -1 -1
v 1 -1 -1
v 0 0 0
v 1 0 0
v 0 0 -0.1
v 0.1 0 -0.1
v 0.9 0 -0.1
v 1 0 -0.1
v 0.4 0 -0.2
v 0.5 0 -0.2
v 0.2 0 -0.7
v 0.4 0 -0.7
v 0.5 0 -0.7
v 0.8 0 -0.7
v 0.2 0 -0.8
v 0.8 0 -0.8
v 0 0 -1
v 0.1 0 -1
v 0.9 0 -1
v 1 0 -1

# faces
f 4/1/1 2/1/1 1/1/1
f 4/2/1 3/2/1 2/2/1
f 5/2/1 3/2/1 4/2/1
f 6/4/1 5/4/1 4/4/1
f 7/4/1 5/4/1 6/4/1
f 8/4/1 6/4/1 4/4/1
f 8/3/1 7/3/1 6/3/1
f 9/3/1 7/3/1 8/3/1
f 10/4/1 9/4/1 8/4/1
f 10/3/1 7/3/1 9/3/1
f 11/4/1 5/4/1 7/4/1
f 11/3/1 7/3/1 10/3/1
f 12/1/1 4/1/1 1/1/1
f 12/4/1 10/4/1 8/4/1
f 12/4/1 11/4/1 10/4/1
f 12/4/1 8/4/1 4/4/1
f 13/4/1 5/4/1 11/4/1
f 13/4/1 11/4/1 12/4/1
f 13/2/1 3/2/1 5/2/1
f 14/1/1 12/1/1 1/1/1
f 15/2/1 13/2/1 12/2/1
f 15/1/1 12/1/1 14/1/1
f 16/2/1 3/2/1 13/2/1
f 16/2/1 13/2/1 15/2/1
f 17/1/2 18/1/2 20/1/2
f 18/2/2 19/2/2 20/2/2
f 20/2/2 19/2/2 21/2/2
f 20/4/2 21/4/2 22/4/2
f 22/4/2 21/4/2 23/4/2
f 23/4/2 21/4/2 24/4/2
f 24/4/2 21/4/2 25/4/2
f 23/4/2 24/4/2 26/4/2
f 24/3/2 25/3/2 27/3/2
f 26/4/2 24/4/2 27/4/2
f 25/4/2 21/4/2 28/4/2
f 27/3/2 25/3/2 28/3/2
f 23/4/2 26/4/2 29/4/2
f 26/3/2 27/3/2 30/3/2
f 29/4/2 26/4/2 30/4/2
f 27/4/2 28/4/2 31/4/2
f 30/3/2 27/3/2 31/3/2
f 29/3/2 30/3/2 32/3/2
f 30/4/2 31/4/2 32/4/2
f 28/4/2 21/4/2 33/4/2
f 32/4/2 31/4/2 33/4/2
f 31/4/2 28/4/2 33/4/2
f 23/4/2 29/4/2 34/4/2
f 29/3/2 32/3/2 34/3/2
f 32/3/2 33/3/2 34/3/2
f 34/3/2 33/3/2 35/3/2
f 22/3/2 23/3/2 36/3/2
f 23/4/2 34/4/2 36/4/2
f 34/4/2 35/4/2 36/4/2
f 35/3/2 33/3/2 37/3/2
f 36/4/2 35/4/2 37/4/2
f 20/4/2 22/4/2 38/4/2
f 22/3/2 36/3/2 38/3/2
f 36/3/2 37/3/2 38/3/2
f 37/3/2 33/3/2 39/3/2
f 38/3/2 37/3/2 39/3/2
f 33/4/2 21/4/2 39/4/2
f 17/1/2 20/1/2 40/1/2
f 20/4/2 38/4/2 40/4/2
f 38/4/2 39/4/2 40/4/2
f 39/4/2 21/4/2 41/4/2
f 40/4/2 39/4/2 41/4/2
f 21/2/2 19/2/2 41/2/2
f 17/1/2 40/1/2 42/1/2
f 40/2/2 41/2/2 43/2/2
f 42/1/2 40/1/2 43/1/2
f 41/2/2 19/2/2 44/2/2
f 43/2/2 41/2/2 44/2/2
f 47/1/3 46/1/3 45/1/3
f 48/1/3 46/1/3 47/1/3
f 49/4/3 48/4/3 47/4/3
f 50/4/3 48/4/3 49/4/3
f 51/4/3 49/4/3 47/4/3
f 51/3/3 50/3/3 49/3/3
f 52/3/3 50/3/3 51/3/3
f 53/3/3 50/3/3 52/3/3
f 54/3/3 50/3/3 53/3/3
f 55/4/3 52/4/3 51/4/3
f 55/3/3 53/3/3 52/3/3
f 56/4/3 54/4/3 53/4/3
f 56/3/3 53/3/3 55/3/3
f 57/3/3 50/3/3 54/3/3
f 57/4/3 54/4/3 56/4/3
f 58/4/3 48/4/3 50/4/3
f 58/3/3 50/3/3 57/3/3
f 59/1/3 47/1/3 45/1/3
f 59/4/3 57/4/3 56/4/3
f 59/4/3 58/4/3 57/4/3
f 59/4/3 55/4/3 51/4/3
f 59/4/3 56/4/3 55/4/3
f 59/4/3 51/4/3 47/4/3
f 60/4/3 48/4/3 58/4/3
f 60/4/3 58/4/3 59/4/3
f 60/1/3 46/1/3 48/1/3
f 61/1/3 59/1/3 45/1/3
f 61/1/3 60/1/3 59/1/3
f 62/1/3 46/1/3 60/1/3
f 62/1/3 60/1/3 61/1/3
f 63/2/4 64/2/4 65/2/4
f 65/2/4 64/2/4 66/2/4
f 65/4/4 66/4/4 67/4/4
f 67/4/4 66/4/4 68/4/4
f 67/2/4 68/2/4 69/2/4
f 69/2/4 68/2/4 70/2/4
f 73/1/5 72/1/5 71/1/5
f 74/1/5 72/1/5 73/1/5
f 75/1/5 72/1/5 74/1/5
f 76/1/5 72/1/5 75/1/5
f 77/4/5 75/4/5 74/4/5
f 78/4/5 75/4/5 77/4/5
f 79/3/5 78/3/5 77/3/5
f 80/4/5 75/4/5 78/4/5
f 80/3/5 78/3/5 79/3/5
f 81/4/5 75/4/5 80/4/5
f 82/4/5 80/4/5 79/4/5
f 82/3/5 81/3/5 80/3/5
f 83/4/5 75/4/5 81/4/5
f 83/3/5 81/3/5 82/3/5
f 84/4/5 75/4/5 83/4/5
f 85/4/5 82/4/5 79/4/5
f 85/4/5 83/4/5 82/4/5
f 86/3/5 84/3/5 83/3/5
f 86/4/5 83/4/5 85/4/5
f 87/4/5 75/4/5 84/4/5
f 87/3/5 84/3/5 86/3/5
f 88/3/5 79/3/5 77/3/5
f 88/4/5 85/4/5 79/4/5
f 89/3/5 86/3/5 85/3/5
f 89/4/5 85/4/5 88/4/5
f 90/4/5 87/4/5 86/4/5
f 90/3/5 86/3/5 89/3/5
f 91/4/5 77/4/5 74/4/5
f 91/3/5 88/3/5 77/3/5
f 91/3/5 89/3/5 88/3/5
f 92/4/5 90/4/5 89/4/5
f 92/3/5 89/3/5 91/3/5
f 93/2/5 74/2/5 73/2/5
f 94/4/5 91/4/5 74/4/5
f 94/2/5 74/2/5 93/2/5
f 94/4/5 92/4/5 91/4/5
f 95/4/5 90/4/5 92/4/5
f 95/4/5 92/4/5 94/4/5
f 95/2/5 76/2/5 75/2/5
f 95/4/5 87/4/5 90/4/5
f 95/4/5 75/4/5 87/4/5
f 96/2/5 76/2/5 95/2/5
f 97/1/6 98/1/6 99/1/6
f 99/1/6 98/1/6 100/1/6
f 100/1/6 98/1/6 101/1/6
f 101/1/6 98/1/6 102/1/6
f 100/4/6 101/4/6 103/4/6
f 103/4/6 101/4/6 104/4/6
f 100/4/6 103/4/6 105/4/6
f 103/3/6 104/3/6 106/3/6
f 105/4/6 103/4/6 106/4/6
f 104/4/6 101/4/6 107/4/6
f 106/3/6 104/3/6 107/3/6
f 107/4/6 101/4/6 108/4/6
f 105/3/6 106/3/6 109/3/6
f 100/4/6 105/4/6 109/4/6
f 107/3/6 108/3/6 109/3/6
f 106/3/6 107/3/6 109/3/6
f 108/4/6 101/4/6 110/4/6
f 109/3/6 108/3/6 110/3/6
f 99/2/6 100/2/6 111/2/6
f 100/4/6 109/4/6 112/4/6
f 111/2/6 100/2/6 112/2/6
f 109/4/6 110/4/6 112/4/6
f 110/4/6 101/4/6 113/4/6
f 112/4/6 110/4/6 113/4/6
f 101/2/6 102/2/6 113/2/6
f 113/2/6 102/2/6 114/2/6
