# Blender v2.91.0 OBJ File: 'elMejorCubo.blend'
# www.blender.org
mtllib elMejorCubo.mtl
o cube10
v 0.000000 0.000000 0.000000
v 0.000000 -1.000000 -1.000000
v 0.000000 -1.000000 -0.000000
v 0.000000 0.000000 -1.000000
v 1.000000 -1.000000 -0.000000
v 1.000000 -1.000000 -1.000000
v 1.000000 0.000000 0.000000
v 1.000000 0.000000 -1.000000
v 1.000000 -1.000000 -0.000000
v 0.000000 0.000000 0.000000
v 0.000000 -1.000000 -0.000000
v 1.000000 0.000000 0.000000
v 0.000000 -1.000000 -1.000000
v 0.000000 0.000000 -1.000000
v 1.000000 -1.000000 -1.000000
v 1.000000 0.000000 -1.000000
v 0.000000 -1.000000 -1.000000
v 1.000000 -1.000000 -0.000000
v 0.000000 -1.000000 -0.000000
v 1.000000 -1.000000 -1.000000
v 0.000000 0.000000 0.000000
v 1.000000 0.000000 0.000000
v 0.000000 0.000000 -1.000000
v 1.000000 0.000000 -1.000000
vt 0.970000 0.509009
vt 0.718000 0.085586
vt 0.760000 0.512012
vt 0.964000 0.064565
vt 0.204000 0.860360
vt 0.214000 0.533033
vt 0.446000 0.857357
vt 0.438000 0.539039
vt 0.404000 0.367868
vt 0.276000 0.076577
vt 0.554000 0.130631
vt 0.236000 0.355856
vt 0.808000 0.854354
vt 0.808000 0.563063
vt 0.612000 0.848348
vt 0.606000 0.575075
vt 0.414000 0.193694
vt 0.414000 0.193694
vt 0.414000 0.193694
vt 0.414000 0.193694
vt 0.414000 0.193694
vt 0.414000 0.193694
vt 0.414000 0.193694
vt 0.414000 0.193694
vn -1.0000 0.0000 0.0000
vn 1.0000 0.0000 0.0000
vn 0.0000 -0.0000 1.0000
vn 0.0000 0.0000 -1.0000
vn 0.0000 -1.0000 -0.0000
vn 0.0000 1.0000 0.0000
usemtl Default_OBJ
s 1
f 1/1/1 2/2/1 3/3/1
f 4/4/1 2/2/1 1/1/1
f 5/5/2 6/6/2 7/7/2
f 7/7/2 6/6/2 8/8/2
f 9/9/3 10/10/3 11/11/3
f 12/12/3 10/10/3 9/9/3
f 13/13/4 14/14/4 15/15/4
f 15/15/4 14/14/4 16/16/4
f 17/17/5 18/18/5 19/19/5
f 20/20/5 18/18/5 17/17/5
f 21/21/6 22/22/6 23/23/6
f 23/23/6 22/22/6 24/24/6
