# Blender v2.91.0 OBJ File: 'elMejorCubo.blend'
# www.blender.org
mtllib madera.mtl
o cube10
v 0.000000 0.000000 0.000000
v 0.000000 -1.000000 -1.000000
v 0.000000 -1.000000 -0.000000
v 0.000000 0.000000 -1.000000
v 1.000000 -1.000000 -0.000000
v 1.000000 -1.000000 -1.000000
v 1.000000 0.000000 0.000000
v 1.000000 0.000000 -1.000000
v 1.000000 -1.000000 -0.000000
v 0.000000 0.000000 0.000000
v 0.000000 -1.000000 -0.000000
v 1.000000 0.000000 0.000000
v 0.000000 -1.000000 -1.000000
v 0.000000 0.000000 -1.000000
v 1.000000 -1.000000 -1.000000
v 1.000000 0.000000 -1.000000
v 0.000000 -1.000000 -1.000000
v 1.000000 -1.000000 -0.000000
v 0.000000 -1.000000 -0.000000
v 1.000000 -1.000000 -1.000000
v 0.000000 0.000000 0.000000
v 1.000000 0.000000 0.000000
v 0.000000 0.000000 -1.000000
v 1.000000 0.000000 -1.000000
vt 0.286000 0.031532
vt 0.954000 0.866366
vt 0.266000 0.917417
vt 0.984000 0.064565
vt 0.006000 0.992492
vt 0.658000 0.989489
vt 0.006000 0.001502
vt 0.674000 0.007507
vt 0.798000 0.968468
vt 0.156000 -0.004505
vt 0.788000 0.007507
vt 0.152000 0.971471
vt 0.750000 0.983483
vt 0.730000 0.007507
vt 0.068000 0.989490
vt 0.068000 0.001502
vt 0.392000 0.938438
vt 0.902000 0.163664
vt 0.868000 0.950450
vt 0.388000 0.145646
vt 0.351260 0.937676
vt 0.968000 0.941441
vt 0.336000 0.124625
vt 0.948000 0.124625
vn -1.0000 0.0000 0.0000
vn 1.0000 0.0000 0.0000
vn 0.0000 -0.0000 1.0000
vn 0.0000 0.0000 -1.0000
vn 0.0000 -1.0000 -0.0000
vn 0.0000 1.0000 0.0000
usemtl Default_OBJ
s 1
f 1/1/1 2/2/1 3/3/1
f 4/4/1 2/2/1 1/1/1
f 5/5/2 6/6/2 7/7/2
f 7/7/2 6/6/2 8/8/2
f 9/9/3 10/10/3 11/11/3
f 12/12/3 10/10/3 9/9/3
f 13/13/4 14/14/4 15/15/4
f 15/15/4 14/14/4 16/16/4
f 17/17/5 18/18/5 19/19/5
f 20/20/5 18/18/5 17/17/5
f 21/21/6 22/22/6 23/23/6
f 23/23/6 22/22/6 24/24/6
