# Blender v2.91.0 OBJ File: 'master_cube.blend'
# www.blender.org
mtllib mario_player.mtl
o Cube
v 1.000000 0.000000 -1.000000
v 1.000000 -1.000000 -1.000000
v 1.000000 0.000000 0.000000
v 1.000000 -1.000000 0.000000
v 0.000000 0.000000 -1.000000
v 0.000000 -1.000000 -1.000000
v 0.000000 0.000000 0.000000
v 0.000000 -1.000000 0.000000
vt 0.344601 0.676765
vt 0.660604 0.675562
vt 0.658964 0.988667
vt 0.342960 0.989870
vt 0.333174 0.666950
vt 0.333329 0.999880
vt 0.000353 0.999536
vt 0.000327 0.666800
vt 0.332402 0.333124
vt 0.332817 0.665436
vt 0.000863 0.666267
vt 0.000449 0.333954
vt 0.270587 0.670614
vt 0.292739 0.671110
vt 0.294041 0.688037
vt 0.271889 0.687541
vt 0.332300 0.333850
vt 0.332259 0.666109
vt 0.000496 0.665613
vt 0.000537 0.333354
vt 0.332512 0.668031
vt 0.332227 1.000207
vt -0.000078 0.999948
vt 0.000207 0.667773
vn 0.0000 1.0000 0.0000
vn 0.0000 0.0000 1.0000
vn -1.0000 0.0000 0.0000
vn 0.0000 -1.0000 0.0000
vn 1.0000 0.0000 0.0000
vn 0.0000 0.0000 -1.0000
usemtl Material
s off
f 1/1/1 5/2/1 7/3/1 3/4/1
f 4/5/2 3/6/2 7/7/2 8/8/2
f 8/9/3 7/10/3 5/11/3 6/12/3
f 6/13/4 2/14/4 4/15/4 8/16/4
f 2/17/5 1/18/5 3/19/5 4/20/5
f 6/21/6 5/22/6 1/23/6 2/24/6
