# Blender v2.91.0 OBJ File: 'mario.blend'
# www.blender.org
mtllib mario.mtl
o Cube
v 1.000000 0.000000 -1.000000
v 1.000000 -1.000000 -1.000000
v 1.000000 0.000000 0.000000
v 1.000000 -1.000000 0.000000
v 0.000000 0.000000 -1.000000
v 0.000000 -1.000000 -1.000000
v 0.000000 0.000000 0.000000
v 0.000000 -1.000000 0.000000
vt 1.000054 0.999946
vt 0.000054 1.000054
vt -0.000054 0.000054
vt 0.999946 -0.000054
vt 0.000039 1.000039
vt -0.000039 0.000039
vt 0.999961 -0.000039
vt 1.000039 0.999961
vt -0.000018 0.999982
vt 0.000018 -0.000018
vt 1.000018 0.000018
vt 0.999982 1.000018
vt 0.000000 0.000000
vt 1.000000 0.000000
vt 1.000000 1.000000
vt -0.000026 0.999974
vt 0.000026 -0.000026
vt 1.000026 0.000026
vt 1.000000 1.000000
vn 0.0000 1.0000 0.0000
vn 0.0000 0.0000 1.0000
vn -1.0000 0.0000 0.0000
vn 0.0000 -1.0000 0.0000
vn 1.0000 0.0000 0.0000
vn 0.0000 0.0000 -1.0000
usemtl Material
s off
f 1/1/1 5/2/1 7/3/1 3/4/1
f 4/5/2 3/6/2 7/7/2 8/8/2
f 8/9/3 7/10/3 5/11/3 6/12/3
f 6/13/4 2/14/4 4/15/4 8/9/4
f 2/16/5 1/17/5 3/18/5 4/15/5
f 6/13/6 5/11/6 1/19/6 2/16/6
